<svg width="863" height="276" viewBox="0 0 863 276" fill="none" xmlns="http://www.w3.org/2000/svg">
<path d="M116.946 116.8C116.946 120.981 115.922 124.779 113.874 128.192C111.911 131.52 109.223 134.208 105.81 136.256C102.482 138.219 98.7272 139.2 94.5459 139.2H40.1459V126.4H94.5459C97.1912 126.4 99.4525 125.461 101.33 123.584C103.207 121.707 104.146 119.445 104.146 116.8C104.146 114.155 103.207 111.893 101.33 110.016C99.4525 108.139 97.1912 107.2 94.5459 107.2H59.3459C55.8472 107.2 52.6045 106.347 49.6179 104.64C46.7165 102.933 44.4125 100.629 42.7059 97.728C40.9992 94.7413 40.1459 91.4987 40.1459 88C40.1459 84.416 40.9992 81.1733 42.7059 78.272C44.4125 75.3707 46.7165 73.0667 49.6179 71.36C52.6045 69.6533 55.8472 68.8 59.3459 68.8H110.546V81.6H59.3459C57.5539 81.6 56.0179 82.24 54.7379 83.52C53.5432 84.7147 52.9459 86.208 52.9459 88C52.9459 89.792 53.5432 91.328 54.7379 92.608C56.0179 93.8027 57.5539 94.4 59.3459 94.4H94.5459C98.7272 94.4 102.482 95.424 105.81 97.472C109.223 99.4347 111.911 102.123 113.874 105.536C115.922 108.864 116.946 112.619 116.946 116.8Z" fill="#F2F2F2"/>
<path d="M212.019 91.2C212.019 95.296 210.995 99.0507 208.947 102.464C206.984 105.877 204.296 108.608 200.883 110.656C197.555 112.619 193.8 113.6 189.619 113.6H140.595C142.387 117.355 145.032 120.427 148.531 122.816C152.115 125.205 156.126 126.4 160.563 126.4H202.419V139.2H160.563C155.699 139.2 151.134 138.304 146.867 136.512C142.686 134.635 138.974 132.075 135.731 128.832C132.574 125.589 130.099 121.877 128.307 117.696C126.515 113.429 125.619 108.864 125.619 104C125.619 99.136 126.515 94.6133 128.307 90.432C130.099 86.1653 132.574 82.4107 135.731 79.168C138.974 75.9253 142.686 73.408 146.867 71.616C151.134 69.7387 155.699 68.8 160.563 68.8H189.619C193.8 68.8 197.555 69.824 200.883 71.872C204.296 73.8347 206.984 76.5227 208.947 79.936C210.995 83.264 212.019 87.0187 212.019 91.2ZM189.619 100.8C192.264 100.8 194.526 99.8613 196.403 97.984C198.28 96.1067 199.219 93.8453 199.219 91.2C199.219 88.5547 198.28 86.2933 196.403 84.416C194.526 82.5387 192.264 81.6 189.619 81.6H160.563C156.808 81.6 153.352 82.4533 150.195 84.16C147.123 85.8667 144.563 88.1707 142.515 91.072C140.467 93.9733 139.187 97.216 138.675 100.8H189.619Z" fill="#F2F2F2"/>
<path d="M249.303 139.2H236.503V81.6H217.303V68.8H236.503V43.2H249.303V68.8H294.103V81.6H249.303V139.2Z" fill="#F2F2F2"/>
<path d="M386.016 139.2H338.016C333.152 139.2 328.587 138.304 324.32 136.512C320.139 134.635 316.427 132.075 313.184 128.832C310.027 125.589 307.552 121.877 305.76 117.696C303.968 113.429 303.072 108.864 303.072 104V68.8H315.872V104C315.872 108.096 316.853 111.851 318.816 115.264C320.864 118.592 323.552 121.28 326.88 123.328C330.208 125.291 333.92 126.315 338.016 126.4H373.216V68.8H386.016V139.2Z" fill="#F2F2F2"/>
<path d="M487.418 104C487.418 108.864 486.522 113.429 484.73 117.696C482.938 121.877 480.421 125.589 477.178 128.832C474.021 132.075 470.309 134.635 466.042 136.512C461.861 138.304 457.338 139.2 452.474 139.2H423.674V126.4H452.474C456.57 126.315 460.282 125.291 463.61 123.328C467.023 121.28 469.711 118.592 471.674 115.264C473.637 111.851 474.618 108.096 474.618 104C474.618 99.904 473.637 96.1493 471.674 92.736C469.711 89.3227 467.023 86.6347 463.61 84.672C460.282 82.624 456.57 81.6 452.474 81.6H417.274V164.8H404.474V68.8H452.474C457.338 68.8 461.861 69.7387 466.042 71.616C470.309 73.408 474.021 75.9253 477.178 79.168C480.421 82.4107 482.938 86.1653 484.73 90.432C486.522 94.6133 487.418 99.136 487.418 104Z" fill="#F2F2F2"/>
<path d="M584.293 104C584.293 108.864 583.397 113.429 581.605 117.696C579.813 121.877 577.296 125.589 574.053 128.832C570.896 132.075 567.184 134.635 562.917 136.512C558.736 138.304 554.213 139.2 549.349 139.2H520.549V126.4H549.349C553.445 126.315 557.157 125.291 560.485 123.328C563.898 121.28 566.586 118.592 568.549 115.264C570.512 111.851 571.493 108.096 571.493 104C571.493 99.904 570.512 96.1493 568.549 92.736C566.586 89.3227 563.898 86.6347 560.485 84.672C557.157 82.624 553.445 81.6 549.349 81.6H514.149V164.8H501.349V68.8H549.349C554.213 68.8 558.736 69.7387 562.917 71.616C567.184 73.408 570.896 75.9253 574.053 79.168C577.296 82.4107 579.813 86.1653 581.605 90.432C583.397 94.6133 584.293 99.136 584.293 104Z" fill="#2A8C34"/>
<path d="M680.016 142.4C680.016 146.496 678.992 150.251 676.944 153.664C674.981 157.077 672.293 159.765 668.88 161.728C665.552 163.776 661.797 164.8 657.616 164.8H520.549V152H657.616C660.261 152 662.523 151.061 664.4 149.184C666.277 147.307 667.216 145.045 667.216 142.4V139.2H632.016C627.152 139.2 622.587 138.304 618.32 136.512C614.139 134.635 610.427 132.075 607.184 128.832C604.027 125.589 601.552 121.877 599.76 117.696C597.968 113.429 597.072 108.864 597.072 104V68.8H609.872V104C609.872 108.096 610.853 111.851 612.816 115.264C614.864 118.592 617.552 121.28 620.88 123.328C624.208 125.291 627.92 126.315 632.016 126.4H667.216V68.8H680.016V142.4Z" fill="#2A8C34"/>
<path d="M480 152V164.8H423.674V152H480Z" fill="#2A8C34"/>
<path d="M385.758 152V164.8H40V152H385.758Z" fill="#2A8C34"/>
<path fill-rule="evenodd" clip-rule="evenodd" d="M800.016 40C812.166 40.0001 822.016 49.8498 822.016 62V146C822.016 158.15 812.166 168 800.016 168H766.016C753.866 168 744.016 158.15 744.016 146V62C744.016 49.8498 753.866 40 766.016 40H800.016ZM768.016 53C761.941 53 757.016 57.9249 757.016 64V144C757.016 150.075 761.941 155 768.016 155H798.016C804.091 155 809.016 150.075 809.016 144V64C809.016 57.9249 804.091 53 798.016 53H768.016Z" fill="#F2F2F2"/>
<path d="M757.016 161.5C757.016 165.09 759.926 168 763.516 168H800.016C812.166 168 822.016 158.15 822.016 146L822.016 119.5C822.016 107.35 812.166 97.5 800.016 97.5H768.016C761.941 97.5 757.016 92.5751 757.016 86.5L757.016 64C757.016 57.9249 761.941 53 768.016 53H802.516C806.106 53 809.016 50.0899 809.016 46.5C809.016 42.9101 806.106 40 802.516 40H766.016C753.866 40 744.016 49.8498 744.016 62L744.016 88.5C744.016 100.65 753.866 110.5 766.016 110.5H798.016C804.091 110.5 809.016 115.425 809.016 121.5L809.016 144C809.016 150.075 804.091 155 798.016 155H763.516C759.926 155 757.016 157.91 757.016 161.5Z" fill="#2A8C34"/>
<path d="M777.184 75.2054C775.982 76.0566 774.683 74.8061 774.683 73.3333V72.1667C774.683 69.8655 772.817 68 770.516 68C768.215 68 766.349 69.8655 766.349 72.1667V73.3333C766.349 74.8061 765.049 76.0566 763.848 75.2054C762.739 74.4205 762.016 73.1281 762.016 71.6667C762.016 66.8802 765.896 63 770.683 63C775.469 63 779.016 66.8802 779.016 71.6667C779.016 73.1281 778.292 74.4205 777.184 75.2054Z" fill="#F2F2F2"/>
<path d="M778.683 90.0001H787.349C792.136 90.0001 796.016 86.1199 796.016 81.3334C796.016 77.1757 794.837 76.867 793.183 76.9329C792.341 76.9664 791.646 77.6585 791.599 78.5001C791.552 79.3416 790.856 80 790.014 80L776.018 80C775.176 80 774.48 79.3416 774.433 78.5001C774.386 77.6585 773.691 76.9664 772.849 76.9329C771.195 76.867 770.016 77.1757 770.016 81.3334C770.016 86.1199 773.896 90.0001 778.683 90.0001Z" fill="#F2F2F2"/>
<path d="M802.184 75.2054C800.982 76.0566 799.683 74.8061 799.683 73.3333V72.1666C799.683 69.8654 797.817 68 795.516 68C793.215 68 791.349 69.8654 791.349 72.1666V73.3333C791.349 74.8061 790.049 76.0566 788.848 75.2054C787.739 74.4205 787.016 73.1281 787.016 71.6667C787.016 66.8802 790.896 63 795.683 63C800.469 63 804.016 66.8802 804.016 71.6667C804.016 73.1281 803.292 74.4205 802.184 75.2054Z" fill="#F2F2F2"/>
<path d="M789 132C789 135.314 786.314 138 783 138C779.686 138 777 135.314 777 132C777 128.686 779.686 126 783 126C786.314 126 789 128.686 789 132Z" fill="#F2F2F2"/>
<path d="M49.5663 226H45.5663V202H41.5663V198H49.5663V226ZM61.1453 223C61.1453 223.827 60.852 224.533 60.2653 225.12C59.6786 225.707 58.972 226 58.1453 226C57.3186 226 56.612 225.707 56.0253 225.12C55.4386 224.533 55.1453 223.827 55.1453 223C55.1453 222.173 55.4386 221.467 56.0253 220.88C56.612 220.293 57.3186 220 58.1453 220C58.972 220 59.6786 220.293 60.2653 220.88C60.852 221.467 61.1453 222.173 61.1453 223ZM97.1053 212C97.1053 213.947 96.7986 215.773 96.1853 217.48C95.572 219.16 94.692 220.64 93.5453 221.92C92.4253 223.2 91.0653 224.2 89.4653 224.92C87.892 225.64 86.1453 226 84.2253 226H77.7053C75.7586 226 73.9986 225.64 72.4253 224.92C70.852 224.2 69.492 223.2 68.3453 221.92C67.2253 220.64 66.3586 219.16 65.7453 217.48C65.132 215.773 64.8253 213.947 64.8253 212C64.8253 210.08 65.132 208.28 65.7453 206.6C66.3586 204.893 67.2253 203.4 68.3453 202.12C69.492 200.813 70.852 199.8 72.4253 199.08C73.9986 198.36 75.7586 198 77.7053 198H84.2253C86.1453 198 87.892 198.36 89.4653 199.08C91.0653 199.8 92.4253 200.813 93.5453 202.12C94.692 203.4 95.572 204.893 96.1853 206.6C96.7986 208.28 97.1053 210.08 97.1053 212ZM93.1053 212C93.1053 210.16 92.7453 208.48 92.0253 206.96C91.332 205.44 90.3186 204.24 88.9853 203.36C87.652 202.453 86.0653 202 84.2253 202H77.7053C75.8653 202 74.2786 202.453 72.9453 203.36C71.6386 204.24 70.6253 205.44 69.9053 206.96C69.1853 208.48 68.8253 210.16 68.8253 212C68.8253 213.84 69.1853 215.52 69.9053 217.04C70.6253 218.533 71.6386 219.733 72.9453 220.64C74.2786 221.547 75.8653 222 77.7053 222H84.2253C86.0653 222 87.652 221.547 88.9853 220.64C90.3186 219.733 91.332 218.533 92.0253 217.04C92.7453 215.52 93.1053 213.84 93.1053 212Z" fill="#F2F2F2"/>
<rect x="127" y="210" width="442.016" height="4" fill="#F2F2F2"/>
<path d="M633.375 218C633.375 219.467 633.015 220.813 632.295 222.04C631.575 223.24 630.602 224.2 629.375 224.92C628.175 225.64 626.842 226 625.375 226H606.415V222H625.375C626.469 222 627.402 221.613 628.175 220.84C628.975 220.04 629.375 219.093 629.375 218C629.375 216.907 628.975 215.973 628.175 215.2C627.402 214.4 626.469 214 625.375 214H606.415V210H621.375C622.469 210 623.402 209.613 624.175 208.84C624.975 208.04 625.375 207.093 625.375 206C625.375 204.907 624.975 203.973 624.175 203.2C623.402 202.4 622.469 202 621.375 202H604.415V226H600.415V198H621.375C622.842 198 624.175 198.36 625.375 199.08C626.602 199.8 627.575 200.773 628.295 202C629.015 203.2 629.375 204.533 629.375 206C629.375 206.827 629.255 207.627 629.015 208.4C628.775 209.147 628.442 209.84 628.015 210.48C629.589 211.013 630.869 211.973 631.855 213.36C632.869 214.72 633.375 216.267 633.375 218ZM662.631 226H642.631C641.351 226 640.178 225.693 639.111 225.08C638.045 224.44 637.191 223.6 636.551 222.56C635.938 221.493 635.631 220.307 635.631 219C635.631 217.693 635.938 216.52 636.551 215.48C637.191 214.413 638.045 213.573 639.111 212.96C640.178 212.32 641.351 212 642.631 212H656.631V216H642.631C641.805 216 641.098 216.293 640.511 216.88C639.925 217.467 639.631 218.173 639.631 219C639.631 219.827 639.925 220.533 640.511 221.12C641.098 221.707 641.805 222 642.631 222H658.631V211C658.631 210.173 658.338 209.467 657.751 208.88C657.165 208.293 656.458 208 655.631 208H639.631V204H655.631C656.938 204 658.111 204.32 659.151 204.96C660.218 205.573 661.058 206.413 661.671 207.48C662.311 208.52 662.631 209.693 662.631 211V226ZM691.176 219C691.176 220.307 690.856 221.493 690.216 222.56C689.603 223.6 688.763 224.44 687.696 225.08C686.656 225.693 685.483 226 684.176 226H667.176V222H684.176C685.003 222 685.71 221.707 686.296 221.12C686.883 220.533 687.176 219.827 687.176 219C687.176 218.173 686.883 217.467 686.296 216.88C685.71 216.293 685.003 216 684.176 216H673.176C672.083 216 671.07 215.733 670.136 215.2C669.23 214.667 668.51 213.947 667.976 213.04C667.443 212.107 667.176 211.093 667.176 210C667.176 208.88 667.443 207.867 667.976 206.96C668.51 206.053 669.23 205.333 670.136 204.8C671.07 204.267 672.083 204 673.176 204H689.176V208H673.176C672.616 208 672.136 208.2 671.736 208.6C671.363 208.973 671.176 209.44 671.176 210C671.176 210.56 671.363 211.04 671.736 211.44C672.136 211.813 672.616 212 673.176 212H684.176C685.483 212 686.656 212.32 687.696 212.96C688.763 213.573 689.603 214.413 690.216 215.48C690.856 216.52 691.176 217.693 691.176 219ZM720.887 211C720.887 212.28 720.567 213.453 719.927 214.52C719.313 215.587 718.473 216.44 717.407 217.08C716.367 217.693 715.193 218 713.887 218H698.567C699.127 219.173 699.953 220.133 701.047 220.88C702.167 221.627 703.42 222 704.807 222H717.887V226H704.807C703.287 226 701.86 225.72 700.527 225.16C699.22 224.573 698.06 223.773 697.047 222.76C696.06 221.747 695.287 220.587 694.727 219.28C694.167 217.947 693.887 216.52 693.887 215C693.887 213.48 694.167 212.067 694.727 210.76C695.287 209.427 696.06 208.253 697.047 207.24C698.06 206.227 699.22 205.44 700.527 204.88C701.86 204.293 703.287 204 704.807 204H713.887C715.193 204 716.367 204.32 717.407 204.96C718.473 205.573 719.313 206.413 719.927 207.48C720.567 208.52 720.887 209.693 720.887 211ZM713.887 214C714.713 214 715.42 213.707 716.007 213.12C716.593 212.533 716.887 211.827 716.887 211C716.887 210.173 716.593 209.467 716.007 208.88C715.42 208.293 714.713 208 713.887 208H704.807C703.633 208 702.553 208.267 701.567 208.8C700.607 209.333 699.807 210.053 699.167 210.96C698.527 211.867 698.127 212.88 697.967 214H713.887ZM757.618 226H752.218L743.818 218H731.538V214.04H747.618C748.738 214.04 749.751 213.773 750.658 213.24C751.565 212.68 752.285 211.947 752.818 211.04C753.351 210.107 753.618 209.093 753.618 208C753.618 206.88 753.351 205.867 752.818 204.96C752.285 204.053 751.565 203.333 750.658 202.8C749.751 202.267 748.738 202 747.618 202H729.298V226H725.298V198H747.618C749.458 198 751.138 198.453 752.658 199.36C754.178 200.24 755.378 201.44 756.258 202.96C757.165 204.48 757.618 206.16 757.618 208C757.618 209.653 757.245 211.187 756.498 212.6C755.778 214.013 754.778 215.187 753.498 216.12C752.245 217.027 750.818 217.613 749.218 217.88L757.618 226ZM787.8 226H772.8C771.28 226 769.853 225.72 768.52 225.16C767.213 224.573 766.053 223.773 765.04 222.76C764.053 221.747 763.28 220.587 762.72 219.28C762.16 217.947 761.88 216.52 761.88 215V204H765.88V215C765.88 216.28 766.187 217.453 766.8 218.52C767.44 219.56 768.28 220.4 769.32 221.04C770.36 221.653 771.52 221.973 772.8 222H783.8V204H787.8V226ZM797.568 226H793.568V204H808.568C810.088 204 811.501 204.293 812.808 204.88C814.141 205.44 815.301 206.227 816.288 207.24C817.301 208.253 818.088 209.427 818.648 210.76C819.208 212.067 819.488 213.48 819.488 215V226H815.488V215C815.488 213.72 815.181 212.56 814.568 211.52C813.955 210.453 813.115 209.6 812.048 208.96C811.008 208.32 809.848 208 808.568 208H797.568V226Z" fill="#F2F2F2"/>
</svg>
